<?xml version="1.0" encoding="UTF-8"?><svg xmlns="http://www.w3.org/2000/svg" viewBox="0 0 594.36 238.65" preserveAspectRatio="xMinYMid meet"><path d="M348.1,95.31H322.24a18.06,18.06,0,0,1-13.08-4.94A17,17,0,0,1,304,77.49a17.54,17.54,0,0,1,18.23-18.22h31.18V49.63H322.24q-12.24,0-20.05,7.45t-7.82,19.6q0,12.24,7.9,20.25t20,8h36.69A67.67,67.67,0,0,1,230.27,67.11h-9.68a76,76,0,0,0-.7,10.18A77.28,77.28,0,0,0,369.33,105a76.44,76.44,0,0,0,3-9.64H348.1Z" style="fill:#fff"/><path d="M297.18,0A77.4,77.4,0,0,0,225,49.63a76.4,76.4,0,0,0-3,9.64h38.24V105h9.56V59.27h21.79V49.63H235.44A67.68,67.68,0,0,1,364.1,87.47h9.68A77.17,77.17,0,0,0,297.18,0Z" style="fill:#fff"/><path d="M48.84,196.72h-20v41.93H20.07V196.72H0v-8.84H48.84Z" style="fill:#fff"/><path d="M98.73,238.65H54.86V187.88H98.73v8.84h-35V229.8h35Zm-2.31-21.34h-29v-8.84h29Z" style="fill:#fff"/><path d="M162.88,223a14.5,14.5,0,0,1-5.13,11.59,18.48,18.48,0,0,1-12.26,4.09H106.75V229.8h38.74a11.92,11.92,0,0,0,6.32-1.63,6.2,6.2,0,0,0,3-5.43,5.84,5.84,0,0,0-3.12-5.28,11.92,11.92,0,0,0-6.24-1.56H121.55a17,17,0,0,1-11.08-3.64,13.68,13.68,0,0,1,0-20.74,17,17,0,0,1,11.08-3.64h38.29v8.84H121.55a6.73,6.73,0,0,0-4.31,1.41,4.61,4.61,0,0,0-1.79,3.8,4.46,4.46,0,0,0,1.79,3.79,7,7,0,0,0,4.31,1.34h23.94a18.11,18.11,0,0,1,12.26,4.23A14.75,14.75,0,0,1,162.88,223Z" style="fill:#fff"/><path d="M216.34,196.72h-20v41.93h-8.77V196.72H167.49v-8.84h48.85Z" style="fill:#fff"/><path d="M275.44,238.65h-28.7q-11.07,0-18.32-7.36t-7.25-18.58q0-11.16,7.17-18t18.4-6.84h28.7v8.84h-28.7A16.11,16.11,0,0,0,230,213.45a15.67,15.67,0,0,0,4.72,11.82,16.64,16.64,0,0,0,12,4.53h28.7Z" style="fill:#fff"/><path d="M348,212.71q0,11.22-7.22,18.58t-18.36,7.36h-14.2q-11.07,0-18.32-7.36t-7.25-18.58q0-11.16,7.17-18t18.4-6.84h14.2q11.31,0,18.44,6.84T348,212.71Zm-8.78.74a16.21,16.21,0,0,0-4.72-12,16.4,16.4,0,0,0-12.08-4.69h-14.2a16.11,16.11,0,0,0-16.72,16.73,15.63,15.63,0,0,0,4.72,11.82,16.62,16.62,0,0,0,12,4.53h14.2a16.73,16.73,0,0,0,12.08-4.53A15.63,15.63,0,0,0,339.22,213.45Z" style="fill:#fff"/><path d="M411.41,212.71q0,11.22-7.25,18.58t-18.32,7.36H357.21V187.88h28.63q11.22,0,18.4,6.84T411.41,212.71Zm-8.85.74a16.11,16.11,0,0,0-16.72-16.73H366V229.8h19.85a16.64,16.64,0,0,0,12-4.53A15.63,15.63,0,0,0,402.56,213.45Z" style="fill:#fff"/><path d="M462.48,238.65H418.62V187.88h43.86v8.84h-35V229.8h35Zm-2.3-21.34h-29v-8.84h29Z" style="fill:#fff"/><path d="M531.84,238.65H518.76l-14.2-14.27H485.45v-8.77h23.79a15,15,0,0,0,8.26-2.16,8.18,8.18,0,0,0,3.79-7.21q0-9.53-12-9.52h-29v41.93H471.4V187.88h36.43q9.81,0,15.84,4.23,6.9,4.84,6.91,14.2a16.2,16.2,0,0,1-4,11,19.61,19.61,0,0,1-10.12,6Z" style="fill:#fff"/><path d="M594.36,223a14.49,14.49,0,0,1-5.12,11.59A18.51,18.51,0,0,1,577,238.65H538.24V229.8H577a11.89,11.89,0,0,0,6.32-1.63,6.21,6.21,0,0,0,3.05-5.43,5.83,5.83,0,0,0-3.13-5.28A11.89,11.89,0,0,0,577,215.9H553A17,17,0,0,1,542,212.26a13.69,13.69,0,0,1,0-20.74A17,17,0,0,1,553,187.88h38.29v8.84H553a6.75,6.75,0,0,0-4.31,1.41,4.61,4.61,0,0,0-1.79,3.8,4.46,4.46,0,0,0,1.79,3.79,7,7,0,0,0,4.31,1.34H577a18.14,18.14,0,0,1,12.27,4.23A14.74,14.74,0,0,1,594.36,223Z" style="fill:#fff"/></svg>